<svg width="1080" height="1080" viewBox="0 0 1080 1080" fill="none" xmlns="http://www.w3.org/2000/svg">
<g clip-path="url(#clip0_1_8)">
<mask id="mask0_1_8" style="mask-type:alpha" maskUnits="userSpaceOnUse" x="-3165" y="2" width="4053" height="1028">
<path d="M-3165 2H888V1030H-3165V2Z" fill="white"/>
</mask>
<g mask="url(#mask0_1_8)">
<path d="M905.279 951.099V628.135C905.279 496.371 982.536 391.435 1137.07 391.435C1161.88 391.073 1186.63 393.811 1210.75 399.587V532.452C1193.19 531.29 1178 531.29 1170.96 531.29C1089.1 531.29 1053.9 568.59 1053.9 644.382V951.099H905.279ZM1255.24 677.179C1255.24 515.104 1378.16 391.516 1549.09 391.516C1720.02 391.516 1842.89 515.024 1842.89 677.179C1842.89 839.334 1719.98 963.92 1549.07 963.92C1378.16 963.92 1255.24 839.169 1255.24 677.179ZM1696.59 677.179C1696.59 585.06 1634.53 519.773 1549.09 519.773C1463.65 519.773 1401.57 585.003 1401.57 677.179C1401.57 770.456 1463.62 834.585 1549.09 834.585C1634.56 834.585 1696.57 770.376 1696.57 677.179H1696.59ZM2273.68 520.851H2113.31V724.895C2113.31 796.018 2139.05 828.673 2212.82 828.673C2219.83 828.673 2237.37 828.673 2259.64 827.51V947.616C2229.21 955.768 2202.34 960.437 2173.01 960.437C2048.92 960.437 1964.63 885.807 1964.63 744.729V520.855H1865.12V403.089H1889.93C1909.74 403.087 1928.74 395.242 1942.78 381.27C1949.71 374.365 1955.21 366.157 1958.96 357.119C1962.71 348.081 1964.64 338.39 1964.63 328.606V217.692H2113.31V403.089H2273.68V520.846V520.851ZM2318.15 677.179C2318.15 515.104 2441.07 391.516 2612 391.516C2782.93 391.516 2905.83 515.024 2905.83 677.179C2905.83 839.334 2782.91 964 2612 964C2441.09 964 2318.15 839.169 2318.15 677.179ZM2759.47 677.179C2759.47 585.06 2697.42 519.773 2611.98 519.773C2526.54 519.773 2464.46 584.998 2464.46 677.179C2464.46 770.456 2526.52 834.585 2611.98 834.585C2697.45 834.585 2759.47 770.371 2759.47 677.179ZM2983.08 951.099V639.793C2983.08 495.208 3075.57 391.435 3240.63 391.435C3404.52 391.435 3497 495.213 3497 639.793V951.099H3349.5V651.452C3349.5 571.019 3313.2 520.874 3240.63 520.874C3168.05 520.874 3131.75 571.015 3131.75 651.452V951.099H2983.08ZM234 739.087V951.08H383.397V748.259C383.397 728.524 391.271 709.602 405.279 695.647C419.307 681.686 438.301 673.85 458.1 673.857H611.285C682.701 673.853 751.206 645.574 801.803 595.21C826.805 570.322 846.645 540.748 860.187 508.183C873.73 475.618 880.707 440.703 880.72 405.438C880.71 370.168 873.734 335.246 860.19 302.676C846.646 270.105 826.801 240.527 801.793 215.637C751.19 165.268 682.672 136.991 611.247 137H234V401.993H383.397V277.058H601.179C634.97 277.051 667.387 290.424 691.332 314.249C703.166 326.021 712.558 340.012 718.97 355.418C725.382 370.824 728.688 387.344 728.698 404.03C728.693 420.72 725.392 437.245 718.982 452.657C712.572 468.069 703.181 482.065 691.347 493.843C667.398 517.676 634.973 531.053 601.174 531.044H442.858C415.431 531.029 388.269 536.4 362.915 546.852C337.58 557.294 314.551 572.618 295.14 591.95C275.753 611.257 260.369 634.198 249.871 659.457C239.381 684.696 233.987 711.758 234 739.087Z" fill="#6D4AFF"/>
</g>
</g>
<defs>
<clipPath id="clip0_1_8">
<rect width="1080" height="1080" fill="white"/>
</clipPath>
</defs>
</svg>
