<svg width="1080" height="1080" viewBox="0 0 1080 1080" fill="none" xmlns="http://www.w3.org/2000/svg">
<g clip-path="url(#clip0_1_8)">
<mask id="mask0_1_8" style="mask-type:alpha" maskUnits="userSpaceOnUse" x="-3044" y="30" width="4053" height="1028">
<path d="M-3044 30H1009V1058H-3044V30Z" fill="white"/>
</mask>
<g mask="url(#mask0_1_8)">
<path d="M1010.76 1043.95V642.497C1010.76 478.71 1106.71 348.272 1298.65 348.272C1329.46 347.821 1360.2 351.225 1390.16 358.405V523.56C1368.35 522.115 1349.49 522.115 1340.75 522.115C1239.07 522.115 1195.35 568.481 1195.35 662.693V1043.95H1010.76ZM1445.42 703.46C1445.42 501.996 1598.09 348.371 1810.39 348.371C2022.7 348.371 2175.31 501.896 2175.31 703.46C2175.31 905.025 2022.65 1059.89 1810.37 1059.89C1598.09 1059.89 1445.42 904.819 1445.42 703.46ZM1993.59 703.46C1993.59 588.953 1916.52 507.8 1810.39 507.8C1704.27 507.8 1627.17 588.882 1627.17 703.46C1627.17 819.407 1704.24 899.121 1810.39 899.121C1916.55 899.121 1993.57 819.307 1993.57 703.46H1993.59ZM2710.37 509.139H2511.18V762.773C2511.18 851.181 2543.15 891.772 2634.77 891.772C2643.49 891.772 2665.27 891.772 2692.93 890.327V1039.62C2655.13 1049.76 2621.75 1055.56 2585.33 1055.56C2431.21 1055.56 2326.51 962.792 2326.51 787.427V509.145H2202.92V362.758H2233.73C2258.33 362.755 2281.94 353.003 2299.37 335.636C2307.98 327.053 2314.82 316.85 2319.48 305.615C2324.13 294.38 2326.52 282.335 2326.51 270.173V132.303H2511.18V362.758H2710.37V509.133V509.139ZM2765.6 703.46C2765.6 501.996 2918.27 348.371 3130.57 348.371C3342.87 348.371 3495.51 501.896 3495.51 703.46C3495.51 905.025 3342.85 1059.99 3130.57 1059.99C2918.3 1059.99 2765.6 904.819 2765.6 703.46ZM3313.74 703.46C3313.74 588.953 3236.67 507.8 3130.54 507.8C3024.42 507.8 2947.33 588.876 2947.33 703.46C2947.33 819.407 3024.4 899.121 3130.54 899.121C3236.7 899.121 3313.74 819.301 3313.74 703.46ZM3591.47 1043.95V656.989C3591.47 477.265 3706.34 348.272 3911.35 348.272C4114.91 348.272 4229.78 477.271 4229.78 656.989V1043.95H4046.58V671.481C4046.58 571.5 4001.49 509.168 3911.35 509.168C3821.21 509.168 3776.12 571.494 3776.12 671.481V1043.95H3591.47ZM177 780.413V1043.93H362.557V791.815C362.557 767.284 372.337 743.764 389.736 726.417C407.159 709.063 430.75 699.323 455.341 699.331H645.603C734.305 699.326 819.391 664.174 882.234 601.571C913.287 570.634 937.93 533.872 954.75 493.393C971.57 452.913 980.236 409.512 980.252 365.677C980.24 321.835 971.575 278.426 954.753 237.94C937.931 197.454 913.283 160.688 882.222 129.748C819.37 67.1378 734.269 31.9891 645.556 32H177V361.395H362.557V206.096H633.051C675.021 206.088 715.284 222.712 745.025 252.327C759.723 266.96 771.388 284.35 779.352 303.501C787.316 322.651 791.422 343.186 791.435 363.927C791.429 384.673 787.328 405.214 779.367 424.372C771.406 443.53 759.742 460.927 745.043 475.567C715.298 505.193 675.025 521.821 633.045 521.81H436.41C402.345 521.792 368.608 528.468 337.117 541.459C305.651 554.439 277.047 573.488 252.938 597.517C228.859 621.517 209.752 650.033 196.713 681.432C183.683 712.804 176.983 746.443 177 780.413Z" fill="#6D4AFF"/>
</g>
</g>
<defs>
<clipPath id="clip0_1_8">
<rect width="1080" height="1080" fill="white"/>
</clipPath>
</defs>
</svg>
