<svg version="1.1" xmlns="http://www.w3.org/2000/svg" viewBox="0 0 126.10196687125097 88.0429627613355" width="126.10196687125097" height="88.0429627613355"><rect x="0" y="0" width="126.10196687125097" height="88.0429627613355" fill="#00000000"></rect><g stroke-linecap="round"><g transform="translate(82.89990234375 72.39998626708984) rotate(0 16.601032263750426 -31.199993133544922)"><path d="M0 0 C5.53 -3.93, 32.93 -13.2, 33.2 -23.6 C33.47 -34, 6.87 -55.93, 1.6 -62.4 M0 0 C5.53 -3.93, 32.93 -13.2, 33.2 -23.6 C33.47 -34, 6.87 -55.93, 1.6 -62.4" stroke="#fff" stroke-width="4" fill="none"></path></g><g transform="translate(82.89990234375 72.39998626708984) rotate(0 16.601032263750426 -31.199993133544922)"><path d="M24.24 -51.74 C17.29 -55.01, 10.34 -58.28, 1.6 -62.4 M24.24 -51.74 C19.32 -54.06, 14.4 -56.37, 1.6 -62.4" stroke="#fff" stroke-width="4" fill="none"></path></g><g transform="translate(82.89990234375 72.39998626708984) rotate(0 16.601032263750426 -31.199993133544922)"><path d="M12.09 -39.69 C8.87 -46.66, 5.65 -53.63, 1.6 -62.4 M12.09 -39.69 C9.81 -44.62, 7.53 -49.55, 1.6 -62.4" stroke="#fff" stroke-width="4" fill="none"></path></g></g><g transform="translate(10 60.999961853027344) rotate(0 31.699981689453125 8.52150045415408)"><text x="10" y="14" font-family="Inter" font-size="13.634400726646502px" fill="#fff" text-anchor="start" style="white-space: pre;" direction="ltr">Tap Here</text></g></svg>